<svg width="914" height="72" viewBox="0 0 914 72" fill="none" xmlns="http://www.w3.org/2000/svg">
<path d="M42.08 10.56C42.4213 11.9253 42.592 13.632 42.592 15.68C42.592 17.6427 42.4213 19.3493 42.08 20.8C42.4213 22.1653 42.592 23.872 42.592 25.92C42.592 27.8827 42.4213 29.5893 42.08 31.04C42.4213 32.4053 42.592 34.112 42.592 36.16C42.592 38.1227 42.4213 39.8293 42.08 41.28H38.24C38.5813 42.6453 38.752 44.352 38.752 46.4C38.752 48.3627 38.5813 50.0693 38.24 51.52C38.5813 52.8853 38.752 54.592 38.752 56.64C38.752 58.6027 38.5813 60.3093 38.24 61.76H35.68C36.0213 63.1253 36.192 64.832 36.192 66.88C36.192 68.8427 36.0213 70.5493 35.68 72H28C27.6587 70.5493 27.488 68.8427 27.488 66.88C27.488 64.832 27.6587 63.1253 28 61.76H25.44C25.0987 60.3093 24.928 58.6027 24.928 56.64C24.928 54.592 25.0987 52.8853 25.44 51.52H17.76C18.1013 52.8853 18.272 54.592 18.272 56.64C18.272 58.6027 18.1013 60.3093 17.76 61.76H15.2C15.5413 63.1253 15.712 64.832 15.712 66.88C15.712 68.8427 15.5413 70.5493 15.2 72H7.52C7.17867 70.5493 7.008 68.8427 7.008 66.88C7.008 64.832 7.17867 63.1253 7.52 61.76H4.96C4.61867 60.3093 4.448 58.6027 4.448 56.64C4.448 54.592 4.61867 52.8853 4.96 51.52C4.61867 50.0693 4.448 48.3627 4.448 46.4C4.448 44.352 4.61867 42.6453 4.96 41.28H1.12C0.778667 39.8293 0.608 38.1227 0.608 36.16C0.608 34.112 0.778667 32.4053 1.12 31.04C0.778667 29.5893 0.608 27.8827 0.608 25.92C0.608 23.872 0.778667 22.1653 1.12 20.8C0.778667 19.3493 0.608 17.6427 0.608 15.68C0.608 13.632 0.778667 11.9253 1.12 10.56C0.778667 9.10933 0.608 7.40266 0.608 5.43999C0.608 3.392 0.778667 1.68533 1.12 0.32H11.36C11.7013 1.68533 11.872 3.392 11.872 5.43999C11.872 7.40266 11.7013 9.10933 11.36 10.56C11.7013 11.9253 11.872 13.632 11.872 15.68C11.872 17.6427 11.7013 19.3493 11.36 20.8C11.7013 22.1653 11.872 23.872 11.872 25.92C11.872 27.8827 11.7013 29.5893 11.36 31.04C11.7013 32.4053 11.872 34.112 11.872 36.16C11.872 38.1227 11.7013 39.8293 11.36 41.28C11.7013 42.6453 11.872 44.352 11.872 46.4C11.872 48.3627 11.7013 50.0693 11.36 51.52H15.2C14.8587 50.0693 14.688 48.3627 14.688 46.4C14.688 44.352 14.8587 42.6453 15.2 41.28H17.76C17.4187 39.8293 17.248 38.1227 17.248 36.16C17.248 34.112 17.4187 32.4053 17.76 31.04C17.4187 29.5893 17.248 27.8827 17.248 25.92C17.248 23.872 17.4187 22.1653 17.76 20.8C17.4187 19.3493 17.248 17.6427 17.248 15.68C17.248 13.632 17.4187 11.9253 17.76 10.56C17.4187 9.10933 17.248 7.40266 17.248 5.43999C17.248 3.392 17.4187 1.68533 17.76 0.32H25.44C25.7813 1.68533 25.952 3.392 25.952 5.43999C25.952 7.40266 25.7813 9.10933 25.44 10.56C25.7813 11.9253 25.952 13.632 25.952 15.68C25.952 17.6427 25.7813 19.3493 25.44 20.8C25.7813 22.1653 25.952 23.872 25.952 25.92C25.952 27.8827 25.7813 29.5893 25.44 31.04C25.7813 32.4053 25.952 34.112 25.952 36.16C25.952 38.1227 25.7813 39.8293 25.44 41.28H28C28.3413 42.6453 28.512 44.352 28.512 46.4C28.512 48.3627 28.3413 50.0693 28 51.52H31.84C31.4987 50.0693 31.328 48.3627 31.328 46.4C31.328 44.352 31.4987 42.6453 31.84 41.28C31.4987 39.8293 31.328 38.1227 31.328 36.16C31.328 34.112 31.4987 32.4053 31.84 31.04C31.4987 29.5893 31.328 27.8827 31.328 25.92C31.328 23.872 31.4987 22.1653 31.84 20.8C31.4987 19.3493 31.328 17.6427 31.328 15.68C31.328 13.632 31.4987 11.9253 31.84 10.56C31.4987 9.10933 31.328 7.40266 31.328 5.43999C31.328 3.392 31.4987 1.68533 31.84 0.32H42.08C42.4213 1.68533 42.592 3.392 42.592 5.43999C42.592 7.40266 42.4213 9.10933 42.08 10.56ZM67.73 41.28C68.0713 42.6453 68.242 44.352 68.242 46.4C68.242 48.3627 68.0713 50.0693 67.73 51.52C68.0713 52.8853 68.242 54.592 68.242 56.64C68.242 58.6027 68.0713 60.3093 67.73 61.76H88.21C88.5513 63.1253 88.722 64.832 88.722 66.88C88.722 68.8427 88.5513 70.5493 88.21 72H57.49C57.1487 70.5493 56.978 68.8427 56.978 66.88C56.978 64.832 57.1487 63.1253 57.49 61.76C57.1487 60.3093 56.978 58.6027 56.978 56.64C56.978 54.592 57.1487 52.8853 57.49 51.52C57.1487 50.0693 56.978 48.3627 56.978 46.4C56.978 44.352 57.1487 42.6453 57.49 41.28C57.1487 39.8293 56.978 38.1227 56.978 36.16C56.978 34.112 57.1487 32.4053 57.49 31.04C57.1487 29.5893 56.978 27.8827 56.978 25.92C56.978 23.872 57.1487 22.1653 57.49 20.8C57.1487 19.3493 56.978 17.6427 56.978 15.68C56.978 13.632 57.1487 11.9253 57.49 10.56C57.1487 9.10933 56.978 7.40266 56.978 5.43999C56.978 3.392 57.1487 1.68533 57.49 0.32H88.21C88.5513 1.68533 88.722 3.392 88.722 5.43999C88.722 7.40266 88.5513 9.10933 88.21 10.56H67.73C68.0713 11.9253 68.242 13.632 68.242 15.68C68.242 17.6427 68.0713 19.3493 67.73 20.8C68.0713 22.1653 68.242 23.872 68.242 25.92C68.242 27.8827 68.0713 29.5893 67.73 31.04H88.21C88.5513 32.4053 88.722 34.112 88.722 36.16C88.722 38.1227 88.5513 39.8293 88.21 41.28H67.73ZM145.092 25.92C145.092 27.8827 144.921 29.5893 144.58 31.04H139.46C139.801 32.4053 139.972 34.112 139.972 36.16C139.972 38.1227 139.801 39.8293 139.46 41.28H144.58C144.921 42.6453 145.092 44.352 145.092 46.4C145.092 48.3627 144.921 50.0693 144.58 51.52C144.921 52.8853 145.092 54.592 145.092 56.64C145.092 58.6027 144.921 60.3093 144.58 61.76H139.46C139.801 63.1253 139.972 64.832 139.972 66.88C139.972 68.8427 139.801 70.5493 139.46 72H103.62C103.279 70.5493 103.108 68.8427 103.108 66.88C103.108 64.832 103.279 63.1253 103.62 61.76C103.279 60.3093 103.108 58.6027 103.108 56.64C103.108 54.592 103.279 52.8853 103.62 51.52C103.279 50.0693 103.108 48.3627 103.108 46.4C103.108 44.352 103.279 42.6453 103.62 41.28C103.279 39.8293 103.108 38.1227 103.108 36.16C103.108 34.112 103.279 32.4053 103.62 31.04C103.279 29.5893 103.108 27.8827 103.108 25.92C103.108 23.872 103.279 22.1653 103.62 20.8C103.279 19.3493 103.108 17.6427 103.108 15.68C103.108 13.632 103.279 11.9253 103.62 10.56C103.279 9.10933 103.108 7.40266 103.108 5.43999C103.108 3.392 103.279 1.68533 103.62 0.32H139.46C139.801 1.68533 139.972 3.392 139.972 5.43999C139.972 7.40266 139.801 9.10933 139.46 10.56H144.58C144.921 11.9253 145.092 13.632 145.092 15.68C145.092 17.6427 144.921 19.3493 144.58 20.8C144.921 22.1653 145.092 23.872 145.092 25.92ZM134.34 31.04C133.999 29.5893 133.828 27.8827 133.828 25.92C133.828 23.872 133.999 22.1653 134.34 20.8C133.999 19.3493 133.828 17.6427 133.828 15.68C133.828 13.632 133.999 11.9253 134.34 10.56H113.86C114.201 11.9253 114.372 13.632 114.372 15.68C114.372 17.6427 114.201 19.3493 113.86 20.8C114.201 22.1653 114.372 23.872 114.372 25.92C114.372 27.8827 114.201 29.5893 113.86 31.04H134.34ZM134.34 51.52C133.999 50.0693 133.828 48.3627 133.828 46.4C133.828 44.352 133.999 42.6453 134.34 41.28H113.86C114.201 42.6453 114.372 44.352 114.372 46.4C114.372 48.3627 114.201 50.0693 113.86 51.52C114.201 52.8853 114.372 54.592 114.372 56.64C114.372 58.6027 114.201 60.3093 113.86 61.76H134.34C133.999 60.3093 133.828 58.6027 133.828 56.64C133.828 54.592 133.999 52.8853 134.34 51.52ZM247.08 31.04C247.421 32.4053 247.592 34.112 247.592 36.16C247.592 38.1227 247.421 39.8293 247.08 41.28C247.421 42.6453 247.592 44.352 247.592 46.4C247.592 48.3627 247.421 50.0693 247.08 51.52H241.96C242.301 52.8853 242.472 54.592 242.472 56.64C242.472 58.6027 242.301 60.3093 241.96 61.76H236.84C237.181 63.1253 237.352 64.832 237.352 66.88C237.352 68.8427 237.181 70.5493 236.84 72H206.12C205.779 70.5493 205.608 68.8427 205.608 66.88C205.608 64.832 205.779 63.1253 206.12 61.76C205.779 60.3093 205.608 58.6027 205.608 56.64C205.608 54.592 205.779 52.8853 206.12 51.52C205.779 50.0693 205.608 48.3627 205.608 46.4C205.608 44.352 205.779 42.6453 206.12 41.28C205.779 39.8293 205.608 38.1227 205.608 36.16C205.608 34.112 205.779 32.4053 206.12 31.04C205.779 29.5893 205.608 27.8827 205.608 25.92C205.608 23.872 205.779 22.1653 206.12 20.8C205.779 19.3493 205.608 17.6427 205.608 15.68C205.608 13.632 205.779 11.9253 206.12 10.56C205.779 9.10933 205.608 7.40266 205.608 5.43999C205.608 3.392 205.779 1.68533 206.12 0.32H236.84C237.181 1.68533 237.352 3.392 237.352 5.43999C237.352 7.40266 237.181 9.10933 236.84 10.56H241.96C242.301 11.9253 242.472 13.632 242.472 15.68C242.472 17.6427 242.301 19.3493 241.96 20.8H247.08C247.421 22.1653 247.592 23.872 247.592 25.92C247.592 27.8827 247.421 29.5893 247.08 31.04ZM236.84 51.52C236.499 50.0693 236.328 48.3627 236.328 46.4C236.328 44.352 236.499 42.6453 236.84 41.28C236.499 39.8293 236.328 38.1227 236.328 36.16C236.328 34.112 236.499 32.4053 236.84 31.04C236.499 29.5893 236.328 27.8827 236.328 25.92C236.328 23.872 236.499 22.1653 236.84 20.8H231.72C231.379 19.3493 231.208 17.6427 231.208 15.68C231.208 13.632 231.379 11.9253 231.72 10.56H216.36C216.701 11.9253 216.872 13.632 216.872 15.68C216.872 17.6427 216.701 19.3493 216.36 20.8C216.701 22.1653 216.872 23.872 216.872 25.92C216.872 27.8827 216.701 29.5893 216.36 31.04C216.701 32.4053 216.872 34.112 216.872 36.16C216.872 38.1227 216.701 39.8293 216.36 41.28C216.701 42.6453 216.872 44.352 216.872 46.4C216.872 48.3627 216.701 50.0693 216.36 51.52C216.701 52.8853 216.872 54.592 216.872 56.64C216.872 58.6027 216.701 60.3093 216.36 61.76H231.72C231.379 60.3093 231.208 58.6027 231.208 56.64C231.208 54.592 231.379 52.8853 231.72 51.52H236.84ZM272.73 41.28C273.071 42.6453 273.242 44.352 273.242 46.4C273.242 48.3627 273.071 50.0693 272.73 51.52C273.071 52.8853 273.242 54.592 273.242 56.64C273.242 58.6027 273.071 60.3093 272.73 61.76H293.21C293.551 63.1253 293.722 64.832 293.722 66.88C293.722 68.8427 293.551 70.5493 293.21 72H262.49C262.149 70.5493 261.978 68.8427 261.978 66.88C261.978 64.832 262.149 63.1253 262.49 61.76C262.149 60.3093 261.978 58.6027 261.978 56.64C261.978 54.592 262.149 52.8853 262.49 51.52C262.149 50.0693 261.978 48.3627 261.978 46.4C261.978 44.352 262.149 42.6453 262.49 41.28C262.149 39.8293 261.978 38.1227 261.978 36.16C261.978 34.112 262.149 32.4053 262.49 31.04C262.149 29.5893 261.978 27.8827 261.978 25.92C261.978 23.872 262.149 22.1653 262.49 20.8C262.149 19.3493 261.978 17.6427 261.978 15.68C261.978 13.632 262.149 11.9253 262.49 10.56C262.149 9.10933 261.978 7.40266 261.978 5.43999C261.978 3.392 262.149 1.68533 262.49 0.32H293.21C293.551 1.68533 293.722 3.392 293.722 5.43999C293.722 7.40266 293.551 9.10933 293.21 10.56H272.73C273.071 11.9253 273.242 13.632 273.242 15.68C273.242 17.6427 273.071 19.3493 272.73 20.8C273.071 22.1653 273.242 23.872 273.242 25.92C273.242 27.8827 273.071 29.5893 272.73 31.04H293.21C293.551 32.4053 293.722 34.112 293.722 36.16C293.722 38.1227 293.551 39.8293 293.21 41.28H272.73ZM349.58 41.28C349.921 42.6453 350.092 44.352 350.092 46.4C350.092 48.3627 349.921 50.0693 349.58 51.52C349.921 52.8853 350.092 54.592 350.092 56.64C350.092 58.6027 349.921 60.3093 349.58 61.76H344.46C344.801 63.1253 344.972 64.832 344.972 66.88C344.972 68.8427 344.801 70.5493 344.46 72H313.74C313.399 70.5493 313.228 68.8427 313.228 66.88C313.228 64.832 313.399 63.1253 313.74 61.76H308.62C308.279 60.3093 308.108 58.6027 308.108 56.64C308.108 54.592 308.279 52.8853 308.62 51.52H318.86C319.201 52.8853 319.372 54.592 319.372 56.64C319.372 58.6027 319.201 60.3093 318.86 61.76H339.34C338.999 60.3093 338.828 58.6027 338.828 56.64C338.828 54.592 338.999 52.8853 339.34 51.52C338.999 50.0693 338.828 48.3627 338.828 46.4C338.828 44.352 338.999 42.6453 339.34 41.28H313.74C313.399 39.8293 313.228 38.1227 313.228 36.16C313.228 34.112 313.399 32.4053 313.74 31.04H308.62C308.279 29.5893 308.108 27.8827 308.108 25.92C308.108 23.872 308.279 22.1653 308.62 20.8C308.279 19.3493 308.108 17.6427 308.108 15.68C308.108 13.632 308.279 11.9253 308.62 10.56H313.74C313.399 9.10933 313.228 7.40266 313.228 5.43999C313.228 3.392 313.399 1.68533 313.74 0.32H344.46C344.801 1.68533 344.972 3.392 344.972 5.43999C344.972 7.40266 344.801 9.10933 344.46 10.56H349.58C349.921 11.9253 350.092 13.632 350.092 15.68C350.092 17.6427 349.921 19.3493 349.58 20.8H339.34C338.999 19.3493 338.828 17.6427 338.828 15.68C338.828 13.632 338.999 11.9253 339.34 10.56H318.86C319.201 11.9253 319.372 13.632 319.372 15.68C319.372 17.6427 319.201 19.3493 318.86 20.8C319.201 22.1653 319.372 23.872 319.372 25.92C319.372 27.8827 319.201 29.5893 318.86 31.04H344.46C344.801 32.4053 344.972 34.112 344.972 36.16C344.972 38.1227 344.801 39.8293 344.46 41.28H349.58ZM393.15 61.76C393.491 63.1253 393.662 64.832 393.662 66.88C393.662 68.8427 393.491 70.5493 393.15 72H367.55C367.209 70.5493 367.038 68.8427 367.038 66.88C367.038 64.832 367.209 63.1253 367.55 61.76H375.23C374.889 60.3093 374.718 58.6027 374.718 56.64C374.718 54.592 374.889 52.8853 375.23 51.52C374.889 50.0693 374.718 48.3627 374.718 46.4C374.718 44.352 374.889 42.6453 375.23 41.28C374.889 39.8293 374.718 38.1227 374.718 36.16C374.718 34.112 374.889 32.4053 375.23 31.04C374.889 29.5893 374.718 27.8827 374.718 25.92C374.718 23.872 374.889 22.1653 375.23 20.8C374.889 19.3493 374.718 17.6427 374.718 15.68C374.718 13.632 374.889 11.9253 375.23 10.56H367.55C367.209 9.10933 367.038 7.40266 367.038 5.43999C367.038 3.392 367.209 1.68533 367.55 0.32H393.15C393.491 1.68533 393.662 3.392 393.662 5.43999C393.662 7.40266 393.491 9.10933 393.15 10.56H385.47C385.811 11.9253 385.982 13.632 385.982 15.68C385.982 17.6427 385.811 19.3493 385.47 20.8C385.811 22.1653 385.982 23.872 385.982 25.92C385.982 27.8827 385.811 29.5893 385.47 31.04C385.811 32.4053 385.982 34.112 385.982 36.16C385.982 38.1227 385.811 39.8293 385.47 41.28C385.811 42.6453 385.982 44.352 385.982 46.4C385.982 48.3627 385.811 50.0693 385.47 51.52C385.811 52.8853 385.982 54.592 385.982 56.64C385.982 58.6027 385.811 60.3093 385.47 61.76H393.15ZM452.08 31.04C452.421 32.4053 452.592 34.112 452.592 36.16C452.592 38.1227 452.421 39.8293 452.08 41.28C452.421 42.6453 452.592 44.352 452.592 46.4C452.592 48.3627 452.421 50.0693 452.08 51.52C452.421 52.8853 452.592 54.592 452.592 56.64C452.592 58.6027 452.421 60.3093 452.08 61.76H446.96C447.301 63.1253 447.472 64.832 447.472 66.88C447.472 68.8427 447.301 70.5493 446.96 72H421.36C421.019 70.5493 420.848 68.8427 420.848 66.88C420.848 64.832 421.019 63.1253 421.36 61.76H416.24C415.899 60.3093 415.728 58.6027 415.728 56.64C415.728 54.592 415.899 52.8853 416.24 51.52H411.12C410.779 50.0693 410.608 48.3627 410.608 46.4C410.608 44.352 410.779 42.6453 411.12 41.28C410.779 39.8293 410.608 38.1227 410.608 36.16C410.608 34.112 410.779 32.4053 411.12 31.04C410.779 29.5893 410.608 27.8827 410.608 25.92C410.608 23.872 410.779 22.1653 411.12 20.8H416.24C415.899 19.3493 415.728 17.6427 415.728 15.68C415.728 13.632 415.899 11.9253 416.24 10.56H421.36C421.019 9.10933 420.848 7.40266 420.848 5.43999C420.848 3.392 421.019 1.68533 421.36 0.32H446.96C447.301 1.68533 447.472 3.392 447.472 5.43999C447.472 7.40266 447.301 9.10933 446.96 10.56H452.08C452.421 11.9253 452.592 13.632 452.592 15.68C452.592 17.6427 452.421 19.3493 452.08 20.8H441.84C441.499 19.3493 441.328 17.6427 441.328 15.68C441.328 13.632 441.499 11.9253 441.84 10.56H426.48C426.821 11.9253 426.992 13.632 426.992 15.68C426.992 17.6427 426.821 19.3493 426.48 20.8H421.36C421.701 22.1653 421.872 23.872 421.872 25.92C421.872 27.8827 421.701 29.5893 421.36 31.04C421.701 32.4053 421.872 34.112 421.872 36.16C421.872 38.1227 421.701 39.8293 421.36 41.28C421.701 42.6453 421.872 44.352 421.872 46.4C421.872 48.3627 421.701 50.0693 421.36 51.52H426.48C426.821 52.8853 426.992 54.592 426.992 56.64C426.992 58.6027 426.821 60.3093 426.48 61.76H441.84C441.499 60.3093 441.328 58.6027 441.328 56.64C441.328 54.592 441.499 52.8853 441.84 51.52C441.499 50.0693 441.328 48.3627 441.328 46.4C441.328 44.352 441.499 42.6453 441.84 41.28H434.16C433.819 39.8293 433.648 38.1227 433.648 36.16C433.648 34.112 433.819 32.4053 434.16 31.04H452.08ZM503.33 10.56C503.671 11.9253 503.842 13.632 503.842 15.68C503.842 17.6427 503.671 19.3493 503.33 20.8C503.671 22.1653 503.842 23.872 503.842 25.92C503.842 27.8827 503.671 29.5893 503.33 31.04C503.671 32.4053 503.842 34.112 503.842 36.16C503.842 38.1227 503.671 39.8293 503.33 41.28C503.671 42.6453 503.842 44.352 503.842 46.4C503.842 48.3627 503.671 50.0693 503.33 51.52C503.671 52.8853 503.842 54.592 503.842 56.64C503.842 58.6027 503.671 60.3093 503.33 61.76C503.671 63.1253 503.842 64.832 503.842 66.88C503.842 68.8427 503.671 70.5493 503.33 72H493.09C492.749 70.5493 492.578 68.8427 492.578 66.88C492.578 64.832 492.749 63.1253 493.09 61.76H486.69C486.349 60.3093 486.178 58.6027 486.178 56.64C486.178 54.592 486.349 52.8853 486.69 51.52H482.85C482.509 50.0693 482.338 48.3627 482.338 46.4C482.338 44.352 482.509 42.6453 482.85 41.28H477.73C477.389 39.8293 477.218 38.1227 477.218 36.16C477.218 34.112 477.389 32.4053 477.73 31.04H472.61C472.951 32.4053 473.122 34.112 473.122 36.16C473.122 38.1227 472.951 39.8293 472.61 41.28C472.951 42.6453 473.122 44.352 473.122 46.4C473.122 48.3627 472.951 50.0693 472.61 51.52C472.951 52.8853 473.122 54.592 473.122 56.64C473.122 58.6027 472.951 60.3093 472.61 61.76C472.951 63.1253 473.122 64.832 473.122 66.88C473.122 68.8427 472.951 70.5493 472.61 72H462.37C462.029 70.5493 461.858 68.8427 461.858 66.88C461.858 64.832 462.029 63.1253 462.37 61.76C462.029 60.3093 461.858 58.6027 461.858 56.64C461.858 54.592 462.029 52.8853 462.37 51.52C462.029 50.0693 461.858 48.3627 461.858 46.4C461.858 44.352 462.029 42.6453 462.37 41.28C462.029 39.8293 461.858 38.1227 461.858 36.16C461.858 34.112 462.029 32.4053 462.37 31.04C462.029 29.5893 461.858 27.8827 461.858 25.92C461.858 23.872 462.029 22.1653 462.37 20.8C462.029 19.3493 461.858 17.6427 461.858 15.68C461.858 13.632 462.029 11.9253 462.37 10.56C462.029 9.10933 461.858 7.40266 461.858 5.43999C461.858 3.392 462.029 1.68533 462.37 0.32H475.17C475.511 1.68533 475.682 3.392 475.682 5.43999C475.682 7.40266 475.511 9.10933 475.17 10.56H479.01C479.351 11.9253 479.522 13.632 479.522 15.68C479.522 17.6427 479.351 19.3493 479.01 20.8H482.85C483.191 22.1653 483.362 23.872 483.362 25.92C483.362 27.8827 483.191 29.5893 482.85 31.04H487.97C488.311 32.4053 488.482 34.112 488.482 36.16C488.482 38.1227 488.311 39.8293 487.97 41.28H493.09C492.749 39.8293 492.578 38.1227 492.578 36.16C492.578 34.112 492.749 32.4053 493.09 31.04C492.749 29.5893 492.578 27.8827 492.578 25.92C492.578 23.872 492.749 22.1653 493.09 20.8C492.749 19.3493 492.578 17.6427 492.578 15.68C492.578 13.632 492.749 11.9253 493.09 10.56C492.749 9.10933 492.578 7.40266 492.578 5.43999C492.578 3.392 492.749 1.68533 493.09 0.32H503.33C503.671 1.68533 503.842 3.392 503.842 5.43999C503.842 7.40266 503.671 9.10933 503.33 10.56ZM605.83 41.28C606.171 42.6453 606.342 44.352 606.342 46.4C606.342 48.3627 606.171 50.0693 605.83 51.52C606.171 52.8853 606.342 54.592 606.342 56.64C606.342 58.6027 606.171 60.3093 605.83 61.76H600.71C601.051 63.1253 601.222 64.832 601.222 66.88C601.222 68.8427 601.051 70.5493 600.71 72H569.99C569.649 70.5493 569.478 68.8427 569.478 66.88C569.478 64.832 569.649 63.1253 569.99 61.76H564.87C564.529 60.3093 564.358 58.6027 564.358 56.64C564.358 54.592 564.529 52.8853 564.87 51.52H575.11C575.451 52.8853 575.622 54.592 575.622 56.64C575.622 58.6027 575.451 60.3093 575.11 61.76H595.59C595.249 60.3093 595.078 58.6027 595.078 56.64C595.078 54.592 595.249 52.8853 595.59 51.52C595.249 50.0693 595.078 48.3627 595.078 46.4C595.078 44.352 595.249 42.6453 595.59 41.28H569.99C569.649 39.8293 569.478 38.1227 569.478 36.16C569.478 34.112 569.649 32.4053 569.99 31.04H564.87C564.529 29.5893 564.358 27.8827 564.358 25.92C564.358 23.872 564.529 22.1653 564.87 20.8C564.529 19.3493 564.358 17.6427 564.358 15.68C564.358 13.632 564.529 11.9253 564.87 10.56H569.99C569.649 9.10933 569.478 7.40266 569.478 5.43999C569.478 3.392 569.649 1.68533 569.99 0.32H600.71C601.051 1.68533 601.222 3.392 601.222 5.43999C601.222 7.40266 601.051 9.10933 600.71 10.56H605.83C606.171 11.9253 606.342 13.632 606.342 15.68C606.342 17.6427 606.171 19.3493 605.83 20.8H595.59C595.249 19.3493 595.078 17.6427 595.078 15.68C595.078 13.632 595.249 11.9253 595.59 10.56H575.11C575.451 11.9253 575.622 13.632 575.622 15.68C575.622 17.6427 575.451 19.3493 575.11 20.8C575.451 22.1653 575.622 23.872 575.622 25.92C575.622 27.8827 575.451 29.5893 575.11 31.04H600.71C601.051 32.4053 601.222 34.112 601.222 36.16C601.222 38.1227 601.051 39.8293 600.71 41.28H605.83ZM657.592 5.43999C657.592 7.40266 657.421 9.10933 657.08 10.56H641.72C642.061 11.9253 642.232 13.632 642.232 15.68C642.232 17.6427 642.061 19.3493 641.72 20.8C642.061 22.1653 642.232 23.872 642.232 25.92C642.232 27.8827 642.061 29.5893 641.72 31.04C642.061 32.4053 642.232 34.112 642.232 36.16C642.232 38.1227 642.061 39.8293 641.72 41.28C642.061 42.6453 642.232 44.352 642.232 46.4C642.232 48.3627 642.061 50.0693 641.72 51.52C642.061 52.8853 642.232 54.592 642.232 56.64C642.232 58.6027 642.061 60.3093 641.72 61.76C642.061 63.1253 642.232 64.832 642.232 66.88C642.232 68.8427 642.061 70.5493 641.72 72H631.48C631.139 70.5493 630.968 68.8427 630.968 66.88C630.968 64.832 631.139 63.1253 631.48 61.76C631.139 60.3093 630.968 58.6027 630.968 56.64C630.968 54.592 631.139 52.8853 631.48 51.52C631.139 50.0693 630.968 48.3627 630.968 46.4C630.968 44.352 631.139 42.6453 631.48 41.28C631.139 39.8293 630.968 38.1227 630.968 36.16C630.968 34.112 631.139 32.4053 631.48 31.04C631.139 29.5893 630.968 27.8827 630.968 25.92C630.968 23.872 631.139 22.1653 631.48 20.8C631.139 19.3493 630.968 17.6427 630.968 15.68C630.968 13.632 631.139 11.9253 631.48 10.56H616.12C615.779 9.10933 615.608 7.40266 615.608 5.43999C615.608 3.392 615.779 1.68533 616.12 0.32H657.08C657.421 1.68533 657.592 3.392 657.592 5.43999ZM708.33 10.56C708.671 11.9253 708.842 13.632 708.842 15.68C708.842 17.6427 708.671 19.3493 708.33 20.8C708.671 22.1653 708.842 23.872 708.842 25.92C708.842 27.8827 708.671 29.5893 708.33 31.04C708.671 32.4053 708.842 34.112 708.842 36.16C708.842 38.1227 708.671 39.8293 708.33 41.28C708.671 42.6453 708.842 44.352 708.842 46.4C708.842 48.3627 708.671 50.0693 708.33 51.52C708.671 52.8853 708.842 54.592 708.842 56.64C708.842 58.6027 708.671 60.3093 708.33 61.76H703.21C703.551 63.1253 703.722 64.832 703.722 66.88C703.722 68.8427 703.551 70.5493 703.21 72H672.49C672.149 70.5493 671.978 68.8427 671.978 66.88C671.978 64.832 672.149 63.1253 672.49 61.76H667.37C667.029 60.3093 666.858 58.6027 666.858 56.64C666.858 54.592 667.029 52.8853 667.37 51.52C667.029 50.0693 666.858 48.3627 666.858 46.4C666.858 44.352 667.029 42.6453 667.37 41.28C667.029 39.8293 666.858 38.1227 666.858 36.16C666.858 34.112 667.029 32.4053 667.37 31.04C667.029 29.5893 666.858 27.8827 666.858 25.92C666.858 23.872 667.029 22.1653 667.37 20.8C667.029 19.3493 666.858 17.6427 666.858 15.68C666.858 13.632 667.029 11.9253 667.37 10.56C667.029 9.10933 666.858 7.40266 666.858 5.43999C666.858 3.392 667.029 1.68533 667.37 0.32H677.61C677.951 1.68533 678.122 3.392 678.122 5.43999C678.122 7.40266 677.951 9.10933 677.61 10.56C677.951 11.9253 678.122 13.632 678.122 15.68C678.122 17.6427 677.951 19.3493 677.61 20.8C677.951 22.1653 678.122 23.872 678.122 25.92C678.122 27.8827 677.951 29.5893 677.61 31.04C677.951 32.4053 678.122 34.112 678.122 36.16C678.122 38.1227 677.951 39.8293 677.61 41.28C677.951 42.6453 678.122 44.352 678.122 46.4C678.122 48.3627 677.951 50.0693 677.61 51.52C677.951 52.8853 678.122 54.592 678.122 56.64C678.122 58.6027 677.951 60.3093 677.61 61.76H698.09C697.749 60.3093 697.578 58.6027 697.578 56.64C697.578 54.592 697.749 52.8853 698.09 51.52C697.749 50.0693 697.578 48.3627 697.578 46.4C697.578 44.352 697.749 42.6453 698.09 41.28C697.749 39.8293 697.578 38.1227 697.578 36.16C697.578 34.112 697.749 32.4053 698.09 31.04C697.749 29.5893 697.578 27.8827 697.578 25.92C697.578 23.872 697.749 22.1653 698.09 20.8C697.749 19.3493 697.578 17.6427 697.578 15.68C697.578 13.632 697.749 11.9253 698.09 10.56C697.749 9.10933 697.578 7.40266 697.578 5.43999C697.578 3.392 697.749 1.68533 698.09 0.32H708.33C708.671 1.68533 708.842 3.392 708.842 5.43999C708.842 7.40266 708.671 9.10933 708.33 10.56ZM759.58 31.04C759.921 32.4053 760.092 34.112 760.092 36.16C760.092 38.1227 759.921 39.8293 759.58 41.28C759.921 42.6453 760.092 44.352 760.092 46.4C760.092 48.3627 759.921 50.0693 759.58 51.52H754.46C754.801 52.8853 754.972 54.592 754.972 56.64C754.972 58.6027 754.801 60.3093 754.46 61.76H749.34C749.681 63.1253 749.852 64.832 749.852 66.88C749.852 68.8427 749.681 70.5493 749.34 72H718.62C718.279 70.5493 718.108 68.8427 718.108 66.88C718.108 64.832 718.279 63.1253 718.62 61.76C718.279 60.3093 718.108 58.6027 718.108 56.64C718.108 54.592 718.279 52.8853 718.62 51.52C718.279 50.0693 718.108 48.3627 718.108 46.4C718.108 44.352 718.279 42.6453 718.62 41.28C718.279 39.8293 718.108 38.1227 718.108 36.16C718.108 34.112 718.279 32.4053 718.62 31.04C718.279 29.5893 718.108 27.8827 718.108 25.92C718.108 23.872 718.279 22.1653 718.62 20.8C718.279 19.3493 718.108 17.6427 718.108 15.68C718.108 13.632 718.279 11.9253 718.62 10.56C718.279 9.10933 718.108 7.40266 718.108 5.43999C718.108 3.392 718.279 1.68533 718.62 0.32H749.34C749.681 1.68533 749.852 3.392 749.852 5.43999C749.852 7.40266 749.681 9.10933 749.34 10.56H754.46C754.801 11.9253 754.972 13.632 754.972 15.68C754.972 17.6427 754.801 19.3493 754.46 20.8H759.58C759.921 22.1653 760.092 23.872 760.092 25.92C760.092 27.8827 759.921 29.5893 759.58 31.04ZM749.34 51.52C748.999 50.0693 748.828 48.3627 748.828 46.4C748.828 44.352 748.999 42.6453 749.34 41.28C748.999 39.8293 748.828 38.1227 748.828 36.16C748.828 34.112 748.999 32.4053 749.34 31.04C748.999 29.5893 748.828 27.8827 748.828 25.92C748.828 23.872 748.999 22.1653 749.34 20.8H744.22C743.879 19.3493 743.708 17.6427 743.708 15.68C743.708 13.632 743.879 11.9253 744.22 10.56H728.86C729.201 11.9253 729.372 13.632 729.372 15.68C729.372 17.6427 729.201 19.3493 728.86 20.8C729.201 22.1653 729.372 23.872 729.372 25.92C729.372 27.8827 729.201 29.5893 728.86 31.04C729.201 32.4053 729.372 34.112 729.372 36.16C729.372 38.1227 729.201 39.8293 728.86 41.28C729.201 42.6453 729.372 44.352 729.372 46.4C729.372 48.3627 729.201 50.0693 728.86 51.52C729.201 52.8853 729.372 54.592 729.372 56.64C729.372 58.6027 729.201 60.3093 728.86 61.76H744.22C743.879 60.3093 743.708 58.6027 743.708 56.64C743.708 54.592 743.879 52.8853 744.22 51.52H749.34ZM803.15 61.76C803.491 63.1253 803.662 64.832 803.662 66.88C803.662 68.8427 803.491 70.5493 803.15 72H777.55C777.209 70.5493 777.038 68.8427 777.038 66.88C777.038 64.832 777.209 63.1253 777.55 61.76H785.23C784.889 60.3093 784.718 58.6027 784.718 56.64C784.718 54.592 784.889 52.8853 785.23 51.52C784.889 50.0693 784.718 48.3627 784.718 46.4C784.718 44.352 784.889 42.6453 785.23 41.28C784.889 39.8293 784.718 38.1227 784.718 36.16C784.718 34.112 784.889 32.4053 785.23 31.04C784.889 29.5893 784.718 27.8827 784.718 25.92C784.718 23.872 784.889 22.1653 785.23 20.8C784.889 19.3493 784.718 17.6427 784.718 15.68C784.718 13.632 784.889 11.9253 785.23 10.56H777.55C777.209 9.10933 777.038 7.40266 777.038 5.43999C777.038 3.392 777.209 1.68533 777.55 0.32H803.15C803.491 1.68533 803.662 3.392 803.662 5.43999C803.662 7.40266 803.491 9.10933 803.15 10.56H795.47C795.811 11.9253 795.982 13.632 795.982 15.68C795.982 17.6427 795.811 19.3493 795.47 20.8C795.811 22.1653 795.982 23.872 795.982 25.92C795.982 27.8827 795.811 29.5893 795.47 31.04C795.811 32.4053 795.982 34.112 795.982 36.16C795.982 38.1227 795.811 39.8293 795.47 41.28C795.811 42.6453 795.982 44.352 795.982 46.4C795.982 48.3627 795.811 50.0693 795.47 51.52C795.811 52.8853 795.982 54.592 795.982 56.64C795.982 58.6027 795.811 60.3093 795.47 61.76H803.15ZM862.08 31.04C862.421 32.4053 862.592 34.112 862.592 36.16C862.592 38.1227 862.421 39.8293 862.08 41.28C862.421 42.6453 862.592 44.352 862.592 46.4C862.592 48.3627 862.421 50.0693 862.08 51.52H858.24C858.581 52.8853 858.752 54.592 858.752 56.64C858.752 58.6027 858.581 60.3093 858.24 61.76H851.84C852.181 63.1253 852.352 64.832 852.352 66.88C852.352 68.8427 852.181 70.5493 851.84 72H831.36C831.019 70.5493 830.848 68.8427 830.848 66.88C830.848 64.832 831.019 63.1253 831.36 61.76H824.96C824.619 60.3093 824.448 58.6027 824.448 56.64C824.448 54.592 824.619 52.8853 824.96 51.52H821.12C820.779 50.0693 820.608 48.3627 820.608 46.4C820.608 44.352 820.779 42.6453 821.12 41.28C820.779 39.8293 820.608 38.1227 820.608 36.16C820.608 34.112 820.779 32.4053 821.12 31.04C820.779 29.5893 820.608 27.8827 820.608 25.92C820.608 23.872 820.779 22.1653 821.12 20.8H824.96C824.619 19.3493 824.448 17.6427 824.448 15.68C824.448 13.632 824.619 11.9253 824.96 10.56H831.36C831.019 9.10933 830.848 7.40266 830.848 5.43999C830.848 3.392 831.019 1.68533 831.36 0.32H851.84C852.181 1.68533 852.352 3.392 852.352 5.43999C852.352 7.40266 852.181 9.10933 851.84 10.56H858.24C858.581 11.9253 858.752 13.632 858.752 15.68C858.752 17.6427 858.581 19.3493 858.24 20.8H862.08C862.421 22.1653 862.592 23.872 862.592 25.92C862.592 27.8827 862.421 29.5893 862.08 31.04ZM851.84 51.52C851.499 50.0693 851.328 48.3627 851.328 46.4C851.328 44.352 851.499 42.6453 851.84 41.28C851.499 39.8293 851.328 38.1227 851.328 36.16C851.328 34.112 851.499 32.4053 851.84 31.04C851.499 29.5893 851.328 27.8827 851.328 25.92C851.328 23.872 851.499 22.1653 851.84 20.8H848C847.659 19.3493 847.488 17.6427 847.488 15.68C847.488 13.632 847.659 11.9253 848 10.56H835.2C835.541 11.9253 835.712 13.632 835.712 15.68C835.712 17.6427 835.541 19.3493 835.2 20.8H831.36C831.701 22.1653 831.872 23.872 831.872 25.92C831.872 27.8827 831.701 29.5893 831.36 31.04C831.701 32.4053 831.872 34.112 831.872 36.16C831.872 38.1227 831.701 39.8293 831.36 41.28C831.701 42.6453 831.872 44.352 831.872 46.4C831.872 48.3627 831.701 50.0693 831.36 51.52H835.2C835.541 52.8853 835.712 54.592 835.712 56.64C835.712 58.6027 835.541 60.3093 835.2 61.76H848C847.659 60.3093 847.488 58.6027 847.488 56.64C847.488 54.592 847.659 52.8853 848 51.52H851.84ZM913.33 41.28C913.671 42.6453 913.842 44.352 913.842 46.4C913.842 48.3627 913.671 50.0693 913.33 51.52C913.671 52.8853 913.842 54.592 913.842 56.64C913.842 58.6027 913.671 60.3093 913.33 61.76H908.21C908.551 63.1253 908.722 64.832 908.722 66.88C908.722 68.8427 908.551 70.5493 908.21 72H877.49C877.149 70.5493 876.978 68.8427 876.978 66.88C876.978 64.832 877.149 63.1253 877.49 61.76H872.37C872.029 60.3093 871.858 58.6027 871.858 56.64C871.858 54.592 872.029 52.8853 872.37 51.52H882.61C882.951 52.8853 883.122 54.592 883.122 56.64C883.122 58.6027 882.951 60.3093 882.61 61.76H903.09C902.749 60.3093 902.578 58.6027 902.578 56.64C902.578 54.592 902.749 52.8853 903.09 51.52C902.749 50.0693 902.578 48.3627 902.578 46.4C902.578 44.352 902.749 42.6453 903.09 41.28H877.49C877.149 39.8293 876.978 38.1227 876.978 36.16C876.978 34.112 877.149 32.4053 877.49 31.04H872.37C872.029 29.5893 871.858 27.8827 871.858 25.92C871.858 23.872 872.029 22.1653 872.37 20.8C872.029 19.3493 871.858 17.6427 871.858 15.68C871.858 13.632 872.029 11.9253 872.37 10.56H877.49C877.149 9.10933 876.978 7.40266 876.978 5.43999C876.978 3.392 877.149 1.68533 877.49 0.32H908.21C908.551 1.68533 908.722 3.392 908.722 5.43999C908.722 7.40266 908.551 9.10933 908.21 10.56H913.33C913.671 11.9253 913.842 13.632 913.842 15.68C913.842 17.6427 913.671 19.3493 913.33 20.8H903.09C902.749 19.3493 902.578 17.6427 902.578 15.68C902.578 13.632 902.749 11.9253 903.09 10.56H882.61C882.951 11.9253 883.122 13.632 883.122 15.68C883.122 17.6427 882.951 19.3493 882.61 20.8C882.951 22.1653 883.122 23.872 883.122 25.92C883.122 27.8827 882.951 29.5893 882.61 31.04H908.21C908.551 32.4053 908.722 34.112 908.722 36.16C908.722 38.1227 908.551 39.8293 908.21 41.28H913.33Z" fill="black" fill-opacity="0.69"/>
</svg>
